<svg width="72" height="65" viewBox="0 0 72 65" fill="none" xmlns="http://www.w3.org/2000/svg">
<path fill-rule="evenodd" clip-rule="evenodd" d="M4.30325 59.9939L18.3771 59.8944C18.7548 59.8944 19.104 59.695 19.2934 59.371L26.8863 46.1178C27.0757 45.7938 27.4946 45.7352 27.8724 45.7352H30.7875C31.1652 45.7352 31.5144 45.5358 31.7038 45.2118L33.1322 42.7186C33.2685 42.4854 33.1269 42.1954 32.855 42.1954L25.8045 42.1954C25.4268 42.1954 25.0776 42.3949 24.8882 42.7189L17.3537 55.8701C17.1643 56.1941 16.6869 56.3546 16.3092 56.3546H9.25875C8.98683 56.3546 8.81712 56.0627 8.95347 55.8295L24.1255 29.347C24.3214 29.3713 24.5209 29.3838 24.7233 29.3838C27.4035 29.3838 29.5762 27.1942 29.5762 24.4932C29.5762 21.7922 27.4035 19.6026 24.7233 19.6026C22.0431 19.6026 19.8703 21.7922 19.8703 24.4932C19.8703 25.6097 20.2416 26.6388 20.8665 27.462L3.20962 58.2816C2.80056 58.9813 3.48749 59.9939 4.30325 59.9939ZM22.5177 24.5616C22.5177 25.7414 23.4668 26.6979 24.6376 26.6979C25.8085 26.6979 26.7576 25.7414 26.7576 24.5615C26.7576 23.3817 25.8085 22.4252 24.6376 22.4252C23.4668 22.4252 22.5177 23.3817 22.5177 24.5616Z" fill="#29AAE1"/>
<path fill-rule="evenodd" clip-rule="evenodd" d="M28.1159 15.0296L35.0674 2.69709C35.4753 1.98515 36.6889 1.89192 37.0857 2.59876L54.7425 33.4184C55.7624 33.2845 56.8325 33.4751 57.792 34.0334C60.1131 35.3838 60.9084 38.3749 59.5683 40.714C58.2282 43.0531 55.2602 43.8545 52.939 42.5041C50.6179 41.1536 49.8227 38.1625 51.1628 35.8234C51.2639 35.6468 51.3744 35.479 51.4931 35.3202L36.321 8.83773C36.1888 8.60212 35.853 8.60425 35.7171 8.84157L32.1919 14.9948C32.003 15.3244 31.9022 15.8213 32.086 16.1486L39.6204 29.2998C39.8041 29.6271 39.801 30.0316 39.6121 30.3613L36.0869 36.5145C35.9509 36.7518 35.6309 36.7304 35.4987 36.4948L34.0703 34.0017C33.8866 33.6744 33.8898 33.2699 34.0787 32.9402L35.5362 30.3961C35.7251 30.0664 35.8842 29.6715 35.7005 29.3442L28.1076 16.091C27.9239 15.7637 27.9271 15.3592 28.1159 15.0296ZM56.4096 36.3096C55.3956 35.7197 54.0991 36.0698 53.5137 37.0916C52.9283 38.1134 53.2757 39.42 54.2896 40.0099C55.3036 40.5999 56.6001 40.2498 57.1855 39.228C57.7709 38.2062 57.4235 36.8996 56.4096 36.3096Z" fill="#29AAE1"/>
<path fill-rule="evenodd" clip-rule="evenodd" d="M61.6784 45.812L68.8008 58.045C69.2087 58.757 68.682 59.8628 67.8762 59.8556L32.5624 59.8556C32.1675 60.8127 31.4687 61.6514 30.5091 62.2097C28.188 63.5602 25.22 62.7587 23.8799 60.4196C22.5398 58.0805 23.335 55.0895 25.6562 53.739C27.9773 52.3885 30.9453 53.1899 32.2854 55.5291C32.3866 55.7056 32.4755 55.8858 32.5526 56.0688L62.8969 56.0688C63.1655 56.0712 63.3316 55.7771 63.1956 55.5398L59.6704 49.3866C59.4815 49.0569 59.1049 48.7206 58.7318 48.7172L43.6628 48.7173C43.2897 48.7139 42.9437 48.5089 42.7548 48.1793L39.2296 42.0261C39.0937 41.7887 39.272 41.5202 39.5406 41.5225L42.3973 41.5225C42.7705 41.5259 43.1165 41.7309 43.3053 42.0605L44.7629 44.6047C44.9517 44.9343 45.2116 45.2707 45.5847 45.274L60.7704 45.274C61.1436 45.2773 61.4896 45.4823 61.6784 45.812ZM29.2442 59.8651C30.2581 59.2751 30.6055 57.9685 30.0201 56.9467C29.4347 55.9249 28.1382 55.5748 27.1242 56.1648C26.1103 56.7547 25.7629 58.0613 26.3483 59.0831C26.9337 60.1049 28.2302 60.455 29.2442 59.8651Z" fill="#29AAE1"/>
</svg>
